<svg width="126" height="53" viewBox="0 0 126 53" fill="none" xmlns="http://www.w3.org/2000/svg">
<path d="M119.5 -0.000225067L113.677 9.97121L125.224 10.0281L119.5 -0.000225067ZM1.5001 27.4997C0.94782 27.4997 0.500105 27.9474 0.500105 28.4997C0.500105 29.052 0.947821 29.4997 1.5001 29.4997L1.5001 27.4997ZM118.483 3.49656C118.477 4.04882 118.92 4.50102 119.473 4.50658C120.025 4.51214 120.477 4.06896 120.483 3.5167L118.483 3.49656ZM120.338 10.2862C120.357 9.73427 119.924 9.27172 119.372 9.2531C118.82 9.23448 118.358 9.66684 118.339 10.2188L120.338 10.2862ZM118.012 16.9308C117.976 17.4819 118.393 17.9579 118.944 17.9939C119.496 18.03 119.972 17.6125 120.008 17.0614L118.012 16.9308ZM119.419 23.8675C119.479 23.3186 119.084 22.8244 118.535 22.7639C117.986 22.7033 117.492 23.0992 117.431 23.6482L119.419 23.8675ZM116.482 30.3355C116.385 30.8791 116.747 31.3986 117.291 31.4958C117.835 31.593 118.354 31.231 118.451 30.6874L116.482 30.3355ZM116.902 37.41C117.057 36.8802 116.754 36.3244 116.224 36.1686C115.694 36.0129 115.139 36.3162 114.983 36.8461L116.902 37.41ZM112.586 42.9511C112.329 43.4398 112.516 44.0445 113.005 44.3018C113.494 44.5591 114.099 44.3716 114.356 43.8829L112.586 42.9511ZM110.008 49.506C110.429 49.1491 110.481 48.5181 110.124 48.0967C109.767 47.6752 109.136 47.6229 108.715 47.9799L110.008 49.506ZM103.116 50.6528C102.575 50.7626 102.225 51.2904 102.335 51.8316C102.445 52.3729 102.973 52.7227 103.514 52.6129L103.116 50.6528ZM96.4626 52.7897C97.0113 52.8524 97.5069 52.4584 97.5696 51.9097C97.6323 51.3609 97.2383 50.8653 96.6896 50.8026L96.4626 52.7897ZM90.1747 49.5063C89.641 49.3644 89.0932 49.6821 88.9513 50.2158C88.8094 50.7495 89.1271 51.2973 89.6608 51.4392L90.1747 49.5063ZM83.1096 49.4292C83.6326 49.6065 84.2004 49.3262 84.3777 48.8032C84.555 48.2801 84.2747 47.7124 83.7517 47.5351L83.1096 49.4292ZM77.3948 45.2632C76.8769 45.0712 76.3015 45.3354 76.1096 45.8533C75.9176 46.3712 76.1818 46.9466 76.6997 47.1385L77.3948 45.2632ZM70.3372 44.7477C70.8539 44.9428 71.4309 44.6822 71.626 44.1655C71.8211 43.6488 71.5605 43.0718 71.0438 42.8767L70.3372 44.7477ZM64.655 40.4857C64.1368 40.2946 63.5618 40.5598 63.3708 41.078C63.1798 41.5962 63.445 42.1712 63.9631 42.3622L64.655 40.4857ZM57.6097 40.0782C58.1312 40.2601 58.7014 39.9848 58.8833 39.4633C59.0652 38.9419 58.7899 38.3717 58.2685 38.1898L57.6097 40.0782ZM51.8154 36.0246C51.2896 35.8558 50.7264 36.1452 50.5575 36.671C50.3887 37.1968 50.6781 37.76 51.2039 37.9289L51.8154 36.0246ZM44.7409 35.9591C45.2717 36.1118 45.8257 35.8053 45.9784 35.2745C46.131 34.7437 45.8245 34.1897 45.2938 34.037L44.7409 35.9591ZM38.7038 32.2646C38.168 32.1307 37.6251 32.4566 37.4913 32.9925C37.3575 33.5283 37.6834 34.0711 38.2192 34.205L38.7038 32.2646ZM31.6405 32.6962C32.1811 32.8089 32.7108 32.462 32.8236 31.9214C32.9363 31.3807 32.5894 30.851 32.0487 30.7383L31.6405 32.6962ZM25.3351 29.4841C24.7901 29.3943 24.2756 29.7633 24.1858 30.3082C24.096 30.8532 24.4649 31.3677 25.0099 31.4575L25.3351 29.4841ZM18.3354 30.5091C18.8838 30.5744 19.3814 30.1829 19.4467 29.6345C19.5121 29.0861 19.1205 28.5885 18.5721 28.5231L18.3354 30.5091ZM11.7718 27.8718C11.2209 27.832 10.7421 28.2463 10.7023 28.7971C10.6625 29.348 11.0768 29.8268 11.6277 29.8666L11.7718 27.8718ZM4.89887 29.5412C5.45099 29.5546 5.90948 29.118 5.92294 28.5658C5.9364 28.0137 5.49972 27.5552 4.94761 27.5418L4.89887 29.5412ZM118.339 10.2188C118.26 12.5775 118.151 14.8131 118.012 16.9308L120.008 17.0614C120.148 14.9205 120.258 12.6638 120.338 10.2862L118.339 10.2188ZM117.431 23.6482C117.164 26.0648 116.848 28.2899 116.482 30.3355L118.451 30.6874C118.826 28.5918 119.148 26.322 119.419 23.8675L117.431 23.6482ZM114.983 36.8461C114.282 39.2295 113.482 41.2503 112.586 42.9511L114.356 43.8829C115.326 42.0413 116.172 39.8926 116.902 37.41L114.983 36.8461ZM108.715 47.9799C107.075 49.3692 105.217 50.2268 103.116 50.6528L103.514 52.6129C105.919 52.125 108.091 51.1291 110.008 49.506L108.715 47.9799ZM96.6896 50.8026C94.6757 50.5726 92.5064 50.1263 90.1747 49.5063L89.6608 51.4392C92.0554 52.0759 94.3244 52.5455 96.4626 52.7897L96.6896 50.8026ZM83.7517 47.5351C81.7246 46.8478 79.6066 46.083 77.3948 45.2632L76.6997 47.1385C78.9202 47.9615 81.0576 48.7335 83.1096 49.4292L83.7517 47.5351ZM71.0438 42.8767C68.9832 42.0985 66.8529 41.296 64.655 40.4857L63.9631 42.3622C66.1531 43.1696 68.277 43.9697 70.3372 44.7477L71.0438 42.8767ZM58.2685 38.1898C56.1732 37.4589 54.0222 36.7333 51.8154 36.0246L51.2039 37.9289C53.3926 38.6317 55.5277 39.3519 57.6097 40.0782L58.2685 38.1898ZM45.2938 34.037C43.1453 33.4191 40.9487 32.8252 38.7038 32.2646L38.2192 34.205C40.4395 34.7595 42.6134 35.3472 44.7409 35.9591L45.2938 34.037ZM32.0487 30.7383C29.8535 30.2806 27.6157 29.86 25.3351 29.4841L25.0099 31.4575C27.2614 31.8286 29.4715 32.2439 31.6405 32.6962L32.0487 30.7383ZM18.5721 28.5231C16.3434 28.2575 14.0766 28.0382 11.7718 27.8718L11.6277 29.8666C13.9006 30.0307 16.1365 30.247 18.3354 30.5091L18.5721 28.5231ZM4.94761 27.5418C3.80719 27.514 2.65803 27.4997 1.5001 27.4997L1.5001 29.4997C2.64161 29.4997 3.77453 29.5138 4.89887 29.5412L4.94761 27.5418Z" fill="white"/>
</svg>
