<svg width="133" height="77" viewBox="0 0 133 77" fill="none" xmlns="http://www.w3.org/2000/svg">
<path d="M132.5 40.9997L122.486 35.2502L122.514 46.7972L132.5 40.9997ZM39.9996 1.00009C39.9996 0.447807 39.5519 9.15527e-05 38.9996 9.15527e-05C38.4474 9.15527e-05 37.9996 0.447807 37.9996 1.00009H39.9996ZM128.907 40.0083C128.355 40.011 127.909 40.4609 127.912 41.0131C127.915 41.5654 128.365 42.011 128.917 42.0083L128.907 40.0083ZM121.934 42.0761C122.487 42.068 122.928 41.6137 122.92 41.0615C122.911 40.5093 122.457 40.0682 121.905 40.0763L121.934 42.0761ZM115.144 40.2098C114.592 40.2236 114.155 40.6823 114.169 41.2344C114.183 41.7865 114.641 42.2229 115.193 42.2092L115.144 40.2098ZM108.273 42.42C108.824 42.4001 109.256 41.9365 109.236 41.3846C109.216 40.8326 108.752 40.4014 108.2 40.4213L108.273 42.42ZM101.252 40.7144C100.7 40.741 100.274 41.2098 100.301 41.7615C100.328 42.3131 100.797 42.7387 101.348 42.712L101.252 40.7144ZM94.7071 43.0745C95.2583 43.0409 95.6779 42.5667 95.6443 42.0155C95.6107 41.4642 95.1366 41.0446 94.5853 41.0782L94.7071 43.0745ZM87.4866 41.5626C86.9359 41.6043 86.5233 42.0845 86.565 42.6352C86.6067 43.186 87.0869 43.5986 87.6376 43.5569L87.4866 41.5626ZM80.895 44.1186C81.4451 44.0685 81.8503 43.582 81.8001 43.032C81.75 42.482 81.2635 42.0767 80.7135 42.1269L80.895 44.1186ZM73.7802 42.8186C73.2312 42.8782 72.8345 43.3717 72.8941 43.9208C72.9538 44.4698 73.4473 44.8665 73.9963 44.8069L73.7802 42.8186ZM67.2162 45.6079C67.764 45.5378 68.1513 45.0368 68.0812 44.489C68.011 43.9412 67.5101 43.5539 66.9623 43.6241L67.2162 45.6079ZM60.0956 44.5767C59.5494 44.6587 59.173 45.1678 59.2549 45.714C59.3369 46.2602 59.846 46.6365 60.3922 46.5546L60.0956 44.5767ZM53.6807 47.6426C54.2247 47.5475 54.5887 47.0294 54.4935 46.4853C54.3984 45.9413 53.8803 45.5774 53.3362 45.6725L53.6807 47.6426ZM46.4661 46.9725C45.925 47.0831 45.576 47.6114 45.6866 48.1525C45.7973 48.6936 46.3256 49.0426 46.8667 48.932L46.4661 46.9725ZM40.317 50.3789C40.8542 50.2507 41.1858 49.7114 41.0577 49.1742C40.9296 48.6369 40.3902 48.3053 39.853 48.4334L40.317 50.3789ZM33.068 50.192C32.5364 50.3417 32.2268 50.894 32.3764 51.4256C32.5261 51.9572 33.0784 52.2669 33.6101 52.1172L33.068 50.192ZM27.0416 54.1378C27.5651 53.9618 27.8467 53.3947 27.6707 52.8712C27.4946 52.3478 26.9276 52.0661 26.4041 52.2422L27.0416 54.1378ZM19.8989 54.6551C19.3879 54.8646 19.1435 55.4486 19.353 55.9596C19.5625 56.4707 20.1466 56.7151 20.6576 56.5056L19.8989 54.6551ZM14.4962 59.3416C14.9862 59.0868 15.1769 58.483 14.9221 57.993C14.6673 57.503 14.0635 57.3123 13.5735 57.5671L14.4962 59.3416ZM7.61381 61.1732C7.16472 61.4947 7.06125 62.1193 7.38271 62.5684C7.70417 63.0175 8.32882 63.121 8.77792 62.7995L7.61381 61.1732ZM3.93767 67.2646C4.27416 66.8267 4.19191 66.1989 3.75397 65.8624C3.31602 65.5259 2.68822 65.6082 2.35173 66.0461L3.93767 67.2646ZM0.659065 73.3987C0.896258 73.8975 1.49286 74.1095 1.99162 73.8723C2.49038 73.6352 2.70242 73.0385 2.46522 72.5398L0.659065 73.3987ZM7.45427 74.3336C6.90507 74.392 6.50713 74.8844 6.56545 75.4336C6.62376 75.9828 7.11624 76.3808 7.66544 76.3225L7.45427 74.3336ZM14.4975 73.9397C14.9767 73.6652 15.1427 73.0542 14.8683 72.5749C14.5938 72.0957 13.9828 71.9297 13.5035 72.2041L14.4975 73.9397ZM18.7907 68.1786C18.3921 68.5608 18.3789 69.1939 18.7612 69.5925C19.1435 69.9911 19.7765 70.0043 20.1751 69.622L18.7907 68.1786ZM24.7826 64.3289C25.1099 63.8841 25.0148 63.2581 24.57 62.9307C24.1252 62.6034 23.4992 62.6985 23.1718 63.1433L24.7826 64.3289ZM26.7986 57.434C26.5324 57.9179 26.7089 58.5259 27.1928 58.7921C27.6767 59.0583 28.2848 58.8818 28.551 58.3979L26.7986 57.434ZM31.5839 52.1052C31.7985 51.5963 31.5599 51.0098 31.051 50.7952C30.5421 50.5806 29.9556 50.8192 29.741 51.3281L31.5839 52.1052ZM32.0989 44.9784C31.9278 45.5036 32.2149 46.0679 32.7401 46.2389C33.2652 46.4099 33.8296 46.1229 34.0006 45.5977L32.0989 44.9784ZM35.9074 38.9357C36.0413 38.3998 35.7154 37.857 35.1795 37.7231C34.6437 37.5893 34.1009 37.9152 33.967 38.451L35.9074 38.9357ZM35.4229 31.7559C35.3212 32.2988 35.6789 32.8212 36.2218 32.9229C36.7646 33.0245 37.2871 32.6668 37.3887 32.124L35.4229 31.7559ZM38.4963 25.2036C38.5699 24.6562 38.1858 24.1528 37.6384 24.0793C37.091 24.0057 36.5877 24.3898 36.5141 24.9372L38.4963 25.2036ZM37.261 18.2564C37.2113 18.8064 37.617 19.2926 38.167 19.3423C38.7171 19.3919 39.2032 18.9863 39.2529 18.4362L37.261 18.2564ZM39.7415 11.4683C39.7695 10.9167 39.3451 10.4468 38.7935 10.4188C38.2419 10.3908 37.7721 10.8152 37.744 11.3668L39.7415 11.4683ZM37.9706 4.5623C37.9615 5.11452 38.4018 5.56954 38.954 5.57863C39.5062 5.58772 39.9612 5.14744 39.9703 4.59523L37.9706 4.5623ZM121.905 40.0763C119.611 40.11 117.358 40.1547 115.144 40.2098L115.193 42.2092C117.401 42.1542 119.647 42.1097 121.934 42.0761L121.905 40.0763ZM108.2 40.4213C105.836 40.5068 103.52 40.6047 101.252 40.7144L101.348 42.712C103.609 42.6028 105.917 42.5052 108.273 42.42L108.2 40.4213ZM94.5853 41.0782C92.1621 41.226 89.7963 41.3877 87.4866 41.5626L87.6376 43.5569C89.9373 43.3828 92.2934 43.2217 94.7071 43.0745L94.5853 41.0782ZM80.7135 42.1269C78.3386 42.3434 76.028 42.5743 73.7802 42.8186L73.9963 44.8069C76.2324 44.5638 78.5314 44.3341 80.895 44.1186L80.7135 42.1269ZM66.9623 43.6241C64.5978 43.9267 62.3095 44.2447 60.0956 44.5767L60.3922 46.5546C62.5915 46.2248 64.8655 45.9087 67.2162 45.6079L66.9623 43.6241ZM53.3362 45.6725C50.9504 46.0897 48.6614 46.5237 46.4661 46.9725L46.8667 48.932C49.0426 48.4872 51.3129 48.0566 53.6807 47.6426L53.3362 45.6725ZM39.853 48.4334C37.4645 49.003 35.2045 49.5904 33.068 50.192L33.6101 52.1172C35.7194 51.5232 37.9533 50.9425 40.317 50.3789L39.853 48.4334ZM26.4041 52.2422C24.0539 53.0325 21.889 53.8392 19.8989 54.6551L20.6576 56.5056C22.6049 55.7073 24.7293 54.9155 27.0416 54.1378L26.4041 52.2422ZM13.5735 57.5671C11.2557 58.7722 9.27893 59.9813 7.61381 61.1732L8.77792 62.7995C10.3556 61.6702 12.2499 60.5095 14.4962 59.3416L13.5735 57.5671ZM2.35173 66.0461C0.296433 68.7211 -0.317773 71.3447 0.659065 73.3987L2.46522 72.5398C1.9562 71.4694 2.08997 69.6694 3.93767 67.2646L2.35173 66.0461ZM7.66544 76.3225C9.72202 76.1041 12.0567 75.3375 14.4975 73.9397L13.5035 72.2041C11.2589 73.4896 9.18857 74.1495 7.45427 74.3336L7.66544 76.3225ZM20.1751 69.622C21.7245 68.1361 23.2728 66.38 24.7826 64.3289L23.1718 63.1433C21.7259 65.1077 20.2526 66.7766 18.7907 68.1786L20.1751 69.622ZM28.551 58.3979C29.6061 56.4799 30.6222 54.3859 31.5839 52.1052L29.741 51.3281C28.805 53.5479 27.8188 55.5794 26.7986 57.434L28.551 58.3979ZM34.0006 45.5977C34.6823 43.5042 35.3205 41.2854 35.9074 38.9357L33.967 38.451C33.391 40.7572 32.7656 42.9311 32.0989 44.9784L34.0006 45.5977ZM37.3887 32.124C37.8019 29.9168 38.1728 27.6111 38.4963 25.2036L36.5141 24.9372C36.195 27.3119 35.8296 29.5836 35.4229 31.7559L37.3887 32.124ZM39.2529 18.4362C39.4555 16.1929 39.6194 13.8709 39.7415 11.4683L37.744 11.3668C37.6232 13.7441 37.4612 16.0399 37.261 18.2564L39.2529 18.4362ZM39.9703 4.59523C39.9898 3.41463 39.9996 2.21632 39.9996 1.00009H37.9996C37.9996 2.20551 37.9899 3.39283 37.9706 4.5623L39.9703 4.59523Z" fill="white"/>
</svg>
